<?xml version="1.0" encoding="UTF-8" standalone="no"?>
<!DOCTYPE svg PUBLIC "-//W3C//DTD SVG 1.1//EN"
 "http://www.w3.org/Graphics/SVG/1.1/DTD/svg11.dtd">
<!-- Generated by graphviz version 4.0.0 (20220529.1859)
 -->
<!-- Title: G Pages: 1 -->
<svg width="426pt" height="367pt"
 viewBox="0.00 0.00 425.60 367.48" xmlns="http://www.w3.org/2000/svg" xmlns:xlink="http://www.w3.org/1999/xlink">
<g id="graph0" class="graph" transform="scale(1 1) rotate(0) translate(4 363.48)">
<title>G</title>
<polygon fill="white" stroke="transparent" points="-4,4 -4,-363.48 421.6,-363.48 421.6,4 -4,4"/>
<!-- system.ruby.network.routers0 -->
<g id="node1" class="node">
<title>system.ruby.network.routers0</title>
<path fill="#cce6fc" stroke="#000000" d="M176.73,-84.76C176.73,-84.76 206.73,-84.76 206.73,-84.76 212.73,-84.76 218.73,-90.76 218.73,-96.76 218.73,-96.76 218.73,-108.76 218.73,-108.76 218.73,-114.76 212.73,-120.76 206.73,-120.76 206.73,-120.76 176.73,-120.76 176.73,-120.76 170.73,-120.76 164.73,-114.76 164.73,-108.76 164.73,-108.76 164.73,-96.76 164.73,-96.76 164.73,-90.76 170.73,-84.76 176.73,-84.76"/>
<text text-anchor="middle" x="191.73" y="-99.06" font-family="Arial" font-size="14.00" fill="#000000">R 0</text>
</g>
<!-- system.ruby.network.routers8 -->
<g id="node9" class="node">
<title>system.ruby.network.routers8</title>
<path fill="#cce6fc" stroke="#000000" d="M186.86,-167.99C186.86,-167.99 216.86,-167.99 216.86,-167.99 222.86,-167.99 228.86,-173.99 228.86,-179.99 228.86,-179.99 228.86,-191.99 228.86,-191.99 228.86,-197.99 222.86,-203.99 216.86,-203.99 216.86,-203.99 186.86,-203.99 186.86,-203.99 180.86,-203.99 174.86,-197.99 174.86,-191.99 174.86,-191.99 174.86,-179.99 174.86,-179.99 174.86,-173.99 180.86,-167.99 186.86,-167.99"/>
<text text-anchor="middle" x="201.86" y="-182.29" font-family="Arial" font-size="14.00" fill="#000000">R 8</text>
</g>
<!-- system.ruby.network.routers0&#45;&#45;system.ruby.network.routers8 -->
<g id="edge1" class="edge">
<title>system.ruby.network.routers0&#45;&#45;system.ruby.network.routers8</title>
<path fill="none" stroke="#042d50" d="M188.28,-121.09C188.46,-131.86 189.87,-145.68 191.91,-157.8"/>
<polygon fill="#042d50" stroke="#042d50" points="188.53,-158.74 193.86,-167.9 195.4,-157.42 188.53,-158.74"/>
</g>
<!-- system.ruby.network.routers1 -->
<g id="node2" class="node">
<title>system.ruby.network.routers1</title>
<path fill="#cce6fc" stroke="#000000" d="M240.21,-101.8C240.21,-101.8 270.21,-101.8 270.21,-101.8 276.21,-101.8 282.21,-107.8 282.21,-113.8 282.21,-113.8 282.21,-125.8 282.21,-125.8 282.21,-131.8 276.21,-137.8 270.21,-137.8 270.21,-137.8 240.21,-137.8 240.21,-137.8 234.21,-137.8 228.21,-131.8 228.21,-125.8 228.21,-125.8 228.21,-113.8 228.21,-113.8 228.21,-107.8 234.21,-101.8 240.21,-101.8"/>
<text text-anchor="middle" x="255.21" y="-116.1" font-family="Arial" font-size="14.00" fill="#000000">R 1</text>
</g>
<!-- system.ruby.network.routers1&#45;&#45;system.ruby.network.routers8 -->
<g id="edge2" class="edge">
<title>system.ruby.network.routers1&#45;&#45;system.ruby.network.routers8</title>
<path fill="none" stroke="#042d50" d="M232.46,-137.82C226.44,-144.56 220.16,-152.33 214.83,-159.66"/>
<polygon fill="#042d50" stroke="#042d50" points="211.9,-157.75 209.08,-167.96 217.65,-161.74 211.9,-157.75"/>
</g>
<!-- system.ruby.network.routers2 -->
<g id="node3" class="node">
<title>system.ruby.network.routers2</title>
<path fill="#cce6fc" stroke="#000000" d="M102.76,-181.82C102.76,-181.82 132.76,-181.82 132.76,-181.82 138.76,-181.82 144.76,-187.82 144.76,-193.82 144.76,-193.82 144.76,-205.82 144.76,-205.82 144.76,-211.82 138.76,-217.82 132.76,-217.82 132.76,-217.82 102.76,-217.82 102.76,-217.82 96.76,-217.82 90.76,-211.82 90.76,-205.82 90.76,-205.82 90.76,-193.82 90.76,-193.82 90.76,-187.82 96.76,-181.82 102.76,-181.82"/>
<text text-anchor="middle" x="117.76" y="-196.12" font-family="Arial" font-size="14.00" fill="#000000">R 2</text>
</g>
<!-- system.ruby.network.routers2&#45;&#45;system.ruby.network.routers8 -->
<g id="edge3" class="edge">
<title>system.ruby.network.routers2&#45;&#45;system.ruby.network.routers8</title>
<path fill="none" stroke="#042d50" d="M144.93,-201.74C151.19,-201.08 157.96,-200.11 164.57,-198.94"/>
<polygon fill="#042d50" stroke="#042d50" points="165.58,-202.31 174.72,-196.95 164.24,-195.44 165.58,-202.31"/>
</g>
<!-- system.ruby.network.routers3 -->
<g id="node4" class="node">
<title>system.ruby.network.routers3</title>
<path fill="#cce6fc" stroke="#000000" d="M214.33,-244.48C214.33,-244.48 244.33,-244.48 244.33,-244.48 250.33,-244.48 256.33,-250.48 256.33,-256.48 256.33,-256.48 256.33,-268.48 256.33,-268.48 256.33,-274.48 250.33,-280.48 244.33,-280.48 244.33,-280.48 214.33,-280.48 214.33,-280.48 208.33,-280.48 202.33,-274.48 202.33,-268.48 202.33,-268.48 202.33,-256.48 202.33,-256.48 202.33,-250.48 208.33,-244.48 214.33,-244.48"/>
<text text-anchor="middle" x="229.33" y="-258.78" font-family="Arial" font-size="14.00" fill="#000000">R 3</text>
</g>
<!-- system.ruby.network.routers3&#45;&#45;system.ruby.network.routers8 -->
<g id="edge4" class="edge">
<title>system.ruby.network.routers3&#45;&#45;system.ruby.network.routers8</title>
<path fill="none" stroke="#042d50" d="M228.81,-244.36C226.59,-235.17 222.86,-223.84 218.79,-213.61"/>
<polygon fill="#042d50" stroke="#042d50" points="221.95,-212.08 214.83,-204.24 215.5,-214.81 221.95,-212.08"/>
</g>
<!-- system.ruby.network.routers4 -->
<g id="node5" class="node">
<title>system.ruby.network.routers4</title>
<path fill="#cce6fc" stroke="#000000" d="M240.37,-229.16C240.37,-229.16 270.37,-229.16 270.37,-229.16 276.37,-229.16 282.37,-235.16 282.37,-241.16 282.37,-241.16 282.37,-253.16 282.37,-253.16 282.37,-259.16 276.37,-265.16 270.37,-265.16 270.37,-265.16 240.37,-265.16 240.37,-265.16 234.37,-265.16 228.37,-259.16 228.37,-253.16 228.37,-253.16 228.37,-241.16 228.37,-241.16 228.37,-235.16 234.37,-229.16 240.37,-229.16"/>
<text text-anchor="middle" x="255.37" y="-243.46" font-family="Arial" font-size="14.00" fill="#000000">R 4</text>
</g>
<!-- system.ruby.network.routers4&#45;&#45;system.ruby.network.routers8 -->
<g id="edge5" class="edge">
<title>system.ruby.network.routers4&#45;&#45;system.ruby.network.routers8</title>
<path fill="none" stroke="#042d50" d="M247.32,-229.15C243.47,-223.78 238.67,-217.81 233.63,-212.05"/>
<polygon fill="#042d50" stroke="#042d50" points="235.99,-209.45 226.67,-204.41 230.82,-214.16 235.99,-209.45"/>
</g>
<!-- system.ruby.network.routers5 -->
<g id="node6" class="node">
<title>system.ruby.network.routers5</title>
<path fill="#cce6fc" stroke="#000000" d="M135.46,-238.93C135.46,-238.93 165.46,-238.93 165.46,-238.93 171.46,-238.93 177.46,-244.93 177.46,-250.93 177.46,-250.93 177.46,-262.93 177.46,-262.93 177.46,-268.93 171.46,-274.93 165.46,-274.93 165.46,-274.93 135.46,-274.93 135.46,-274.93 129.46,-274.93 123.46,-268.93 123.46,-262.93 123.46,-262.93 123.46,-250.93 123.46,-250.93 123.46,-244.93 129.46,-238.93 135.46,-238.93"/>
<text text-anchor="middle" x="150.46" y="-253.23" font-family="Arial" font-size="14.00" fill="#000000">R 5</text>
</g>
<!-- system.ruby.network.routers5&#45;&#45;system.ruby.network.routers8 -->
<g id="edge6" class="edge">
<title>system.ruby.network.routers5&#45;&#45;system.ruby.network.routers8</title>
<path fill="none" stroke="#042d50" d="M171.54,-238.57C177.96,-230.69 184.74,-221.37 190.32,-212.76"/>
<polygon fill="#042d50" stroke="#042d50" points="193.37,-214.49 195.64,-204.14 187.41,-210.82 193.37,-214.49"/>
</g>
<!-- system.ruby.network.routers6 -->
<g id="node7" class="node">
<title>system.ruby.network.routers6</title>
<path fill="#cce6fc" stroke="#000000" d="M119.47,-117.83C119.47,-117.83 149.47,-117.83 149.47,-117.83 155.47,-117.83 161.47,-123.83 161.47,-129.83 161.47,-129.83 161.47,-141.83 161.47,-141.83 161.47,-147.83 155.47,-153.83 149.47,-153.83 149.47,-153.83 119.47,-153.83 119.47,-153.83 113.47,-153.83 107.47,-147.83 107.47,-141.83 107.47,-141.83 107.47,-129.83 107.47,-129.83 107.47,-123.83 113.47,-117.83 119.47,-117.83"/>
<text text-anchor="middle" x="134.47" y="-132.13" font-family="Arial" font-size="14.00" fill="#000000">R 6</text>
</g>
<!-- system.ruby.network.routers6&#45;&#45;system.ruby.network.routers8 -->
<g id="edge7" class="edge">
<title>system.ruby.network.routers6&#45;&#45;system.ruby.network.routers8</title>
<path fill="none" stroke="#042d50" d="M148.58,-153.84C153.83,-158.43 160.02,-163.34 166.3,-167.92"/>
<polygon fill="#042d50" stroke="#042d50" points="164.64,-171.03 174.84,-173.92 168.67,-165.31 164.64,-171.03"/>
</g>
<!-- system.ruby.network.routers7 -->
<g id="node8" class="node">
<title>system.ruby.network.routers7</title>
<path fill="#cce6fc" stroke="#000000" d="M273.88,-157.58C273.88,-157.58 303.88,-157.58 303.88,-157.58 309.88,-157.58 315.88,-163.58 315.88,-169.58 315.88,-169.58 315.88,-181.58 315.88,-181.58 315.88,-187.58 309.88,-193.58 303.88,-193.58 303.88,-193.58 273.88,-193.58 273.88,-193.58 267.88,-193.58 261.88,-187.58 261.88,-181.58 261.88,-181.58 261.88,-169.58 261.88,-169.58 261.88,-163.58 267.88,-157.58 273.88,-157.58"/>
<text text-anchor="middle" x="288.88" y="-171.88" font-family="Arial" font-size="14.00" fill="#000000">R 7</text>
</g>
<!-- system.ruby.network.routers7&#45;&#45;system.ruby.network.routers8 -->
<g id="edge8" class="edge">
<title>system.ruby.network.routers7&#45;&#45;system.ruby.network.routers8</title>
<path fill="none" stroke="#042d50" d="M261.82,-178.81C254.62,-179.68 246.71,-180.62 239.07,-181.54"/>
<polygon fill="#042d50" stroke="#042d50" points="238.41,-178.09 228.9,-182.75 239.24,-185.04 238.41,-178.09"/>
</g>
<!-- system.ruby.network.routers8&#45;&#45;system.ruby.network.routers0 -->
<g id="edge9" class="edge">
<title>system.ruby.network.routers8&#45;&#45;system.ruby.network.routers0</title>
<path fill="none" stroke="#042d50" d="M205.3,-167.65C205.12,-156.89 203.72,-143.07 201.67,-130.94"/>
<polygon fill="#042d50" stroke="#042d50" points="205.05,-130 199.72,-120.85 198.18,-131.33 205.05,-130"/>
</g>
<!-- system.ruby.network.routers8&#45;&#45;system.ruby.network.routers1 -->
<g id="edge10" class="edge">
<title>system.ruby.network.routers8&#45;&#45;system.ruby.network.routers1</title>
<path fill="none" stroke="#042d50" d="M224.61,-167.96C230.63,-161.22 236.9,-153.45 242.24,-146.12"/>
<polygon fill="#042d50" stroke="#042d50" points="245.17,-148.03 247.99,-137.82 239.42,-144.04 245.17,-148.03"/>
</g>
<!-- system.ruby.network.routers8&#45;&#45;system.ruby.network.routers2 -->
<g id="edge11" class="edge">
<title>system.ruby.network.routers8&#45;&#45;system.ruby.network.routers2</title>
<path fill="none" stroke="#042d50" d="M174.69,-184.07C168.43,-184.73 161.66,-185.7 155.05,-186.87"/>
<polygon fill="#042d50" stroke="#042d50" points="154.03,-183.5 144.89,-188.86 155.38,-190.37 154.03,-183.5"/>
</g>
<!-- system.ruby.network.routers8&#45;&#45;system.ruby.network.routers3 -->
<g id="edge12" class="edge">
<title>system.ruby.network.routers8&#45;&#45;system.ruby.network.routers3</title>
<path fill="none" stroke="#042d50" d="M202.38,-204.11C204.6,-213.3 208.33,-224.63 212.39,-234.86"/>
<polygon fill="#042d50" stroke="#042d50" points="209.24,-236.38 216.36,-244.23 215.68,-233.66 209.24,-236.38"/>
</g>
<!-- system.ruby.network.routers8&#45;&#45;system.ruby.network.routers4 -->
<g id="edge13" class="edge">
<title>system.ruby.network.routers8&#45;&#45;system.ruby.network.routers4</title>
<path fill="none" stroke="#042d50" d="M209.9,-203.99C213.75,-209.36 218.56,-215.33 223.6,-221.09"/>
<polygon fill="#042d50" stroke="#042d50" points="221.23,-223.69 230.55,-228.74 226.41,-218.98 221.23,-223.69"/>
</g>
<!-- system.ruby.network.routers8&#45;&#45;system.ruby.network.routers5 -->
<g id="edge14" class="edge">
<title>system.ruby.network.routers8&#45;&#45;system.ruby.network.routers5</title>
<path fill="none" stroke="#042d50" d="M180.78,-204.35C174.36,-212.22 167.58,-221.54 162,-230.15"/>
<polygon fill="#042d50" stroke="#042d50" points="158.95,-228.42 156.68,-238.77 164.91,-232.1 158.95,-228.42"/>
</g>
<!-- system.ruby.network.routers8&#45;&#45;system.ruby.network.routers6 -->
<g id="edge15" class="edge">
<title>system.ruby.network.routers8&#45;&#45;system.ruby.network.routers6</title>
<path fill="none" stroke="#042d50" d="M187.75,-167.98C182.5,-163.39 176.3,-158.48 170.02,-153.89"/>
<polygon fill="#042d50" stroke="#042d50" points="171.68,-150.78 161.48,-147.9 167.66,-156.51 171.68,-150.78"/>
</g>
<!-- system.ruby.l1_cntrl0 -->
<g id="node10" class="node">
<title>system.ruby.l1_cntrl0</title>
<path fill="#e5bcd0" stroke="#000000" d="M160.73,-0.5C160.73,-0.5 204.73,-0.5 204.73,-0.5 210.73,-0.5 216.73,-6.5 216.73,-12.5 216.73,-12.5 216.73,-24.5 216.73,-24.5 216.73,-30.5 210.73,-36.5 204.73,-36.5 204.73,-36.5 160.73,-36.5 160.73,-36.5 154.73,-36.5 148.73,-30.5 148.73,-24.5 148.73,-24.5 148.73,-12.5 148.73,-12.5 148.73,-6.5 154.73,-0.5 160.73,-0.5"/>
<text text-anchor="middle" x="182.73" y="-14.8" font-family="Arial" font-size="14.00" fill="#000000">l1_cntrl0</text>
</g>
<!-- system.ruby.l1_cntrl0&#45;&#45;system.ruby.network.routers0 -->
<g id="edge16" class="edge">
<title>system.ruby.l1_cntrl0&#45;&#45;system.ruby.network.routers0</title>
<path fill="none" stroke="#381526" d="M185.78,-47.09C186.72,-55.89 187.76,-65.57 188.69,-74.36"/>
<polygon fill="#381526" stroke="#381526" points="189.23,-46.36 184.69,-36.78 182.27,-47.1 189.23,-46.36"/>
<polygon fill="#381526" stroke="#381526" points="185.24,-74.94 189.78,-84.51 192.2,-74.2 185.24,-74.94"/>
</g>
<!-- system.ruby.l1_cntrl1 -->
<g id="node11" class="node">
<title>system.ruby.l1_cntrl1</title>
<path fill="#e5bcd0" stroke="#000000" d="M285.56,-34.95C285.56,-34.95 329.56,-34.95 329.56,-34.95 335.56,-34.95 341.56,-40.95 341.56,-46.95 341.56,-46.95 341.56,-58.95 341.56,-58.95 341.56,-64.95 335.56,-70.95 329.56,-70.95 329.56,-70.95 285.56,-70.95 285.56,-70.95 279.56,-70.95 273.56,-64.95 273.56,-58.95 273.56,-58.95 273.56,-46.95 273.56,-46.95 273.56,-40.95 279.56,-34.95 285.56,-34.95"/>
<text text-anchor="middle" x="307.56" y="-49.25" font-family="Arial" font-size="14.00" fill="#000000">l1_cntrl1</text>
</g>
<!-- system.ruby.l1_cntrl1&#45;&#45;system.ruby.network.routers1 -->
<g id="edge17" class="edge">
<title>system.ruby.l1_cntrl1&#45;&#45;system.ruby.network.routers1</title>
<path fill="none" stroke="#381526" d="M286.71,-79.57C283.11,-84.17 279.36,-88.96 275.75,-93.56"/>
<polygon fill="#381526" stroke="#381526" points="289.85,-81.24 293.26,-71.21 284.33,-76.93 289.85,-81.24"/>
<polygon fill="#381526" stroke="#381526" points="272.91,-91.52 269.5,-101.55 278.42,-95.84 272.91,-91.52"/>
</g>
<!-- system.ruby.l1_cntrl2 -->
<g id="node12" class="node">
<title>system.ruby.l1_cntrl2</title>
<path fill="#e5bcd0" stroke="#000000" d="M12,-193.4C12,-193.4 56,-193.4 56,-193.4 62,-193.4 68,-199.4 68,-205.4 68,-205.4 68,-217.4 68,-217.4 68,-223.4 62,-229.4 56,-229.4 56,-229.4 12,-229.4 12,-229.4 6,-229.4 0,-223.4 0,-217.4 0,-217.4 0,-205.4 0,-205.4 0,-199.4 6,-193.4 12,-193.4"/>
<text text-anchor="middle" x="34" y="-207.7" font-family="Arial" font-size="14.00" fill="#000000">l1_cntrl2</text>
</g>
<!-- system.ruby.l1_cntrl2&#45;&#45;system.ruby.network.routers2 -->
<g id="edge18" class="edge">
<title>system.ruby.l1_cntrl2&#45;&#45;system.ruby.network.routers2</title>
<path fill="none" stroke="#381526" d="M78.05,-205.31C78.86,-205.2 79.66,-205.09 80.46,-204.98"/>
<polygon fill="#381526" stroke="#381526" points="77.5,-201.85 68.07,-206.69 78.45,-208.79 77.5,-201.85"/>
<polygon fill="#381526" stroke="#381526" points="81.23,-208.41 90.65,-203.57 80.27,-201.47 81.23,-208.41"/>
</g>
<!-- system.ruby.l1_cntrl3 -->
<g id="node13" class="node">
<title>system.ruby.l1_cntrl3</title>
<path fill="#e5bcd0" stroke="#000000" d="M289.58,-291.6C289.58,-291.6 333.58,-291.6 333.58,-291.6 339.58,-291.6 345.58,-297.6 345.58,-303.6 345.58,-303.6 345.58,-315.6 345.58,-315.6 345.58,-321.6 339.58,-327.6 333.58,-327.6 333.58,-327.6 289.58,-327.6 289.58,-327.6 283.58,-327.6 277.58,-321.6 277.58,-315.6 277.58,-315.6 277.58,-303.6 277.58,-303.6 277.58,-297.6 283.58,-291.6 289.58,-291.6"/>
<text text-anchor="middle" x="311.58" y="-305.9" font-family="Arial" font-size="14.00" fill="#000000">l1_cntrl3</text>
</g>
<!-- system.ruby.l1_cntrl3&#45;&#45;system.ruby.network.routers3 -->
<g id="edge19" class="edge">
<title>system.ruby.l1_cntrl3&#45;&#45;system.ruby.network.routers3</title>
<path fill="none" stroke="#381526" d="M271.11,-286.41C269.23,-285.34 267.36,-284.27 265.5,-283.2"/>
<polygon fill="#381526" stroke="#381526" points="269.6,-289.58 280.01,-291.52 273.07,-283.51 269.6,-289.58"/>
<polygon fill="#381526" stroke="#381526" points="266.8,-279.92 256.39,-277.98 263.33,-285.99 266.8,-279.92"/>
</g>
<!-- system.ruby.l2_cntrl0 -->
<g id="node14" class="node">
<title>system.ruby.l2_cntrl0</title>
<path fill="#e5bcd0" stroke="#000000" d="M239.97,-322.98C239.97,-322.98 283.97,-322.98 283.97,-322.98 289.97,-322.98 295.97,-328.98 295.97,-334.98 295.97,-334.98 295.97,-346.98 295.97,-346.98 295.97,-352.98 289.97,-358.98 283.97,-358.98 283.97,-358.98 239.97,-358.98 239.97,-358.98 233.97,-358.98 227.97,-352.98 227.97,-346.98 227.97,-346.98 227.97,-334.98 227.97,-334.98 227.97,-328.98 233.97,-322.98 239.97,-322.98"/>
<text text-anchor="middle" x="261.97" y="-337.28" font-family="Arial" font-size="14.00" fill="#000000">l2_cntrl0</text>
</g>
<!-- system.ruby.l2_cntrl0&#45;&#45;system.ruby.network.routers4 -->
<g id="edge20" class="edge">
<title>system.ruby.l2_cntrl0&#45;&#45;system.ruby.network.routers4</title>
<path fill="none" stroke="#381526" d="M259.99,-312.82C259.16,-300.99 258.19,-287.26 257.36,-275.43"/>
<polygon fill="#381526" stroke="#381526" points="256.51,-313.16 260.7,-322.89 263.49,-312.67 256.51,-313.16"/>
<polygon fill="#381526" stroke="#381526" points="260.83,-274.92 256.64,-265.2 253.85,-275.42 260.83,-274.92"/>
</g>
<!-- system.ruby.dir_cntrl0 -->
<g id="node15" class="node">
<title>system.ruby.dir_cntrl0</title>
<path fill="#e5bcd0" stroke="#000000" d="M78.18,-307.99C78.18,-307.99 126.18,-307.99 126.18,-307.99 132.18,-307.99 138.18,-313.99 138.18,-319.99 138.18,-319.99 138.18,-331.99 138.18,-331.99 138.18,-337.99 132.18,-343.99 126.18,-343.99 126.18,-343.99 78.18,-343.99 78.18,-343.99 72.18,-343.99 66.18,-337.99 66.18,-331.99 66.18,-331.99 66.18,-319.99 66.18,-319.99 66.18,-313.99 72.18,-307.99 78.18,-307.99"/>
<text text-anchor="middle" x="102.18" y="-322.29" font-family="Arial" font-size="14.00" fill="#000000">dir_cntrl0</text>
</g>
<!-- system.ruby.dir_cntrl0&#45;&#45;system.ruby.network.routers5 -->
<g id="edge21" class="edge">
<title>system.ruby.dir_cntrl0&#45;&#45;system.ruby.network.routers5</title>
<path fill="none" stroke="#381526" d="M120.77,-299.4C124.4,-294.21 128.2,-288.78 131.82,-283.59"/>
<polygon fill="#381526" stroke="#381526" points="117.73,-297.64 114.87,-307.84 123.47,-301.65 117.73,-297.64"/>
<polygon fill="#381526" stroke="#381526" points="134.83,-285.39 137.69,-275.19 129.1,-281.38 134.83,-285.39"/>
</g>
<!-- system.ruby.dma_cntrl0 -->
<g id="node16" class="node">
<title>system.ruby.dma_cntrl0</title>
<path fill="#e5bcd0" stroke="#000000" d="M39.12,-64.13C39.12,-64.13 99.12,-64.13 99.12,-64.13 105.12,-64.13 111.12,-70.13 111.12,-76.13 111.12,-76.13 111.12,-88.13 111.12,-88.13 111.12,-94.13 105.12,-100.13 99.12,-100.13 99.12,-100.13 39.12,-100.13 39.12,-100.13 33.12,-100.13 27.12,-94.13 27.12,-88.13 27.12,-88.13 27.12,-76.13 27.12,-76.13 27.12,-70.13 33.12,-64.13 39.12,-64.13"/>
<text text-anchor="middle" x="69.12" y="-78.43" font-family="Arial" font-size="14.00" fill="#000000">dma_cntrl0</text>
</g>
<!-- system.ruby.dma_cntrl0&#45;&#45;system.ruby.network.routers6 -->
<g id="edge22" class="edge">
<title>system.ruby.dma_cntrl0&#45;&#45;system.ruby.network.routers6</title>
<path fill="none" stroke="#381526" d="M99.12,-106.79C100.93,-108.28 102.76,-109.77 104.57,-111.26"/>
<polygon fill="#381526" stroke="#381526" points="101.19,-103.96 91.24,-100.31 96.74,-109.36 101.19,-103.96"/>
<polygon fill="#381526" stroke="#381526" points="102.42,-114.02 112.36,-117.67 106.86,-108.62 102.42,-114.02"/>
</g>
<!-- system.ruby.io_controller -->
<g id="node17" class="node">
<title>system.ruby.io_controller</title>
<path fill="#e5bcd0" stroke="#000000" d="M339.6,-145.85C339.6,-145.85 405.6,-145.85 405.6,-145.85 411.6,-145.85 417.6,-151.85 417.6,-157.85 417.6,-157.85 417.6,-169.85 417.6,-169.85 417.6,-175.85 411.6,-181.85 405.6,-181.85 405.6,-181.85 339.6,-181.85 339.6,-181.85 333.6,-181.85 327.6,-175.85 327.6,-169.85 327.6,-169.85 327.6,-157.85 327.6,-157.85 327.6,-151.85 333.6,-145.85 339.6,-145.85"/>
<text text-anchor="middle" x="372.6" y="-160.15" font-family="Arial" font-size="14.00" fill="#000000">io_controller</text>
</g>
<!-- system.ruby.io_controller&#45;&#45;system.ruby.network.routers7 -->
<g id="edge23" class="edge">
<title>system.ruby.io_controller&#45;&#45;system.ruby.network.routers7</title>
<path fill="none" stroke="#381526" d="M317.37,-171.59C317.26,-171.6 317.14,-171.62 317.03,-171.64"/>
<polygon fill="#381526" stroke="#381526" points="317.89,-175.05 327.31,-170.2 316.92,-168.12 317.89,-175.05"/>
<polygon fill="#381526" stroke="#381526" points="325.42,-166.93 316,-171.78 326.39,-173.86 325.42,-166.93"/>
</g>
</g>
</svg>
